<svg width="13" height="13" viewBox="0 0 13 13" fill="none" xmlns="http://www.w3.org/2000/svg">
<path d="M7.08199 11.918L6.45299 12.52C6.32599 12.647 6.17099 12.711 5.98799 12.711C5.80599 12.711 5.65098 12.647 5.52298 12.52L0.218979 7.21503C0.0909789 7.08703 0.0269775 6.932 0.0269775 6.75C0.0269775 6.568 0.0909789 6.41297 0.218979 6.28497L5.52298 0.97998C5.65098 0.85298 5.80599 0.789001 5.98799 0.789001C6.17099 0.789001 6.32599 0.85298 6.45299 0.97998L7.08199 1.58197C7.20999 1.70997 7.26399 1.865 7.24599 2.047C7.24599 2.229 7.18198 2.38402 7.05498 2.51202L3.77298 5.65601H11.621C11.803 5.65601 11.958 5.72002 12.086 5.84802C12.214 5.97502 12.277 6.13001 12.277 6.31201V7.18799C12.277 7.36999 12.214 7.52498 12.086 7.65198C11.958 7.77998 11.803 7.84399 11.621 7.84399H3.77298L7.05498 10.988C7.18198 11.116 7.24599 11.271 7.24599 11.453C7.26399 11.635 7.20999 11.79 7.08199 11.918Z" fill="#222222"/>
</svg>
