<svg width="13" height="13" viewBox="0 0 13 13" fill="none" xmlns="http://www.w3.org/2000/svg">
<path d="M5.19501 1.58197L5.82401 0.97998C5.952 0.85298 6.107 0.789001 6.289 0.789001C6.471 0.789001 6.626 0.85298 6.754 0.97998L12.059 6.28497C12.186 6.41297 12.25 6.568 12.25 6.75C12.25 6.932 12.186 7.08703 12.059 7.21503L6.754 12.52C6.626 12.647 6.471 12.711 6.289 12.711C6.107 12.711 5.952 12.647 5.82401 12.52L5.19501 11.918C5.06801 11.79 5.004 11.635 5.004 11.453C5.022 11.271 5.09499 11.116 5.22299 10.988L8.504 7.84399H0.656006C0.474006 7.84399 0.31901 7.77998 0.19101 7.65198C0.0640095 7.52498 0 7.36999 0 7.18799V6.31201C0 6.13001 0.0640095 5.97502 0.19101 5.84802C0.31901 5.72002 0.474006 5.65601 0.656006 5.65601H8.504L5.22299 2.51202C5.09499 2.38402 5.022 2.229 5.004 2.047C5.004 1.865 5.06801 1.70997 5.19501 1.58197Z" fill="white"/>
</svg>
