<svg xmlns="http://www.w3.org/2000/svg" fill="none" height="13" width="13" xmlns:v="https://vecta.io/nano"><path d="M7.055 11.918l-.63.602c-.128.127-.283.19-.465.19s-.337-.064-.465-.19L.19 7.215C.064 7.087 0 6.932 0 6.75s.064-.337.19-.465L5.496.98c.128-.127.283-.19.465-.19s.337.064.465.19l.63.602c.127.128.19.283.19.465a.74.74 0 0 1-.219.465l-3.28 3.144h7.848c.182 0 .337.064.465.192a.63.63 0 0 1 .191.464v.876a.63.63 0 0 1-.191.464c-.128.128-.283.192-.465.192H3.746l3.28 3.144a.74.74 0 0 1 .219.465c0 .182-.064.337-.19.465z" fill="#fff" fill-opacity=".94"/></svg>